<?xml version="1.0" encoding="UTF-8" standalone="no"?>
<svg
   xmlns:dc="http://purl.org/dc/elements/1.1/"
   xmlns:cc="http://creativecommons.org/ns#"
   xmlns:rdf="http://www.w3.org/1999/02/22-rdf-syntax-ns#"
   xmlns:svg="http://www.w3.org/2000/svg"
   xmlns="http://www.w3.org/2000/svg"
   id="svg8"
   version="1.1"
   viewBox="0 0 136.52499 275.92264"
   height="275.92264mm"
   width="136.52499mm">
  <defs
     id="defs2" />
  <metadata
     id="metadata5">
    <rdf:RDF>
      <cc:Work
         rdf:about="">
        <dc:format>image/svg+xml</dc:format>
        <dc:type
           rdf:resource="http://purl.org/dc/dcmitype/StillImage" />
        <dc:title></dc:title>
      </cc:Work>
    </rdf:RDF>
  </metadata>
  <g
     transform="translate(-13.153573,-22.135715)"
     id="layer1">
    <g
       transform="matrix(0.26458333,0,0,0.26458333,13.153573,22.135715)"
       id="g4540">
</g>
    <g
       transform="matrix(0.26458333,0,0,0.26458333,13.153573,22.135715)"
       id="g4542">
</g>
    <g
       transform="matrix(0.26458333,0,0,0.26458333,13.153573,22.135715)"
       id="g4544">
</g>
    <g
       transform="matrix(0.26458333,0,0,0.26458333,13.153573,22.135715)"
       id="g4546">
</g>
    <g
       transform="matrix(0.26458333,0,0,0.26458333,13.153573,22.135715)"
       id="g4548">
</g>
    <g
       transform="matrix(0.26458333,0,0,0.26458333,13.153573,22.135715)"
       id="g4550">
</g>
    <g
       transform="matrix(0.26458333,0,0,0.26458333,13.153573,22.135715)"
       id="g4552">
</g>
    <g
       transform="matrix(0.26458333,0,0,0.26458333,13.153573,22.135715)"
       id="g4554">
</g>
    <g
       transform="matrix(0.26458333,0,0,0.26458333,13.153573,22.135715)"
       id="g4556">
</g>
    <g
       transform="matrix(0.26458333,0,0,0.26458333,13.153573,22.135715)"
       id="g4558">
</g>
    <g
       transform="matrix(0.26458333,0,0,0.26458333,13.153573,22.135715)"
       id="g4560">
</g>
    <g
       transform="matrix(0.26458333,0,0,0.26458333,13.153573,22.135715)"
       id="g4562">
</g>
    <g
       transform="matrix(0.26458333,0,0,0.26458333,13.153573,22.135715)"
       id="g4564">
</g>
    <g
       transform="matrix(0.26458333,0,0,0.26458333,13.153573,22.135715)"
       id="g4566">
</g>
    <g
       transform="matrix(0.26458333,0,0,0.26458333,13.153573,22.135715)"
       id="g4568">
</g>
    <g
       transform="matrix(0.26458333,0,0,0.26458333,14.211909,162.59168)"
       id="g4708">
      <circle
         style="fill:#fad24d"
         cx="256"
         cy="256"
         r="256"
         id="circle4605" />
      <ellipse
         style="fill:#edb937"
         cx="256"
         cy="421.64001"
         rx="182.28"
         ry="14.369"
         id="ellipse4607" />
      <path
         style="fill:#666666"
         d="m 65.982,67.222 h 380.036 c 12.486,0 22.7,10.217 22.7,22.703 V 324.03 H 43.282 V 89.925 c 0,-12.486 10.214,-22.703 22.7,-22.703 z"
         id="path4609" />
      <path
         style="fill:#15bdb2"
         d="M 58.695,308.614 H 453.302 V 89.922 c 0,-3.979 -3.308,-7.287 -7.287,-7.287 H 65.979 c -3.976,0 -7.287,3.308 -7.287,7.287 v 218.693 z"
         id="path4611" />
      <g
         id="g4623">
	<path
   style="fill:#ffffff"
   d="m 468.718,324.03 v 24.826 c 0,12.489 -11.261,22.703 -25.026,22.703 H 68.305 c -13.765,0 -25.026,-10.214 -25.026,-22.703 V 324.03 h 425.436 z"
   id="path4613" />

	<path
   style="fill:#ffffff"
   d="M 144.153,234.3 H 131.29 l -2.201,-14.717 H 113.446 L 111.245,234.3 H 99.54 l 12.979,-81.119 h 18.657 l 12.979,81.119 z m -29.089,-25.727 h 12.284 l -6.14,-41.024 z"
   id="path4615" />

	<path
   style="fill:#ffffff"
   d="m 168.837,153.181 c 6.413,0 11.182,1.7 14.314,5.099 3.129,3.399 4.693,8.384 4.693,14.951 v 10.544 c 0,6.568 -1.563,11.549 -4.693,14.949 -3.129,3.399 -7.901,5.099 -14.314,5.099 h -6.025 v 30.476 H 150.064 V 153.18 h 18.773 z m -6.025,11.588 v 27.465 h 6.025 c 2.009,0 3.554,-0.54 4.635,-1.624 1.081,-1.081 1.621,-3.09 1.621,-6.025 v -12.168 c 0,-2.935 -0.54,-4.944 -1.621,-6.025 -1.083,-1.081 -2.628,-1.621 -4.635,-1.621 h -6.025 z"
   id="path4617" />

	<path
   style="fill:#ffffff"
   d="m 193.75,153.181 h 12.748 V 234.3 H 193.75 Z"
   id="path4619" />

	<path
   style="fill:#ffffff"
   d="m 367.541,206.507 4.024,-15.339 -9.107,-3.575 c 0.307,-3.438 0.288,-6.901 -0.055,-10.34 l 9.073,-3.67 -4.184,-15.295 -9.663,1.458 c -1.437,-3.101 -3.179,-6.091 -5.228,-8.932 l 6.02,-7.709 -11.274,-11.155 -7.646,6.101 c -2.861,-2.02 -5.872,-3.733 -8.983,-5.136 l 1.358,-9.679 -15.339,-4.024 -3.575,9.107 c -3.438,-0.307 -6.903,-0.291 -10.34,0.055 l -3.667,-9.073 -15.297,4.184 1.458,9.663 0.005,-0.002 c -3.098,1.435 -6.091,3.179 -8.932,5.228 l -7.709,-6.022 -11.155,11.274 6.101,7.646 c -2.02,2.861 -3.733,5.87 -5.136,8.983 l -9.679,-1.358 -4.024,15.339 9.107,3.575 c -0.307,3.438 -0.288,6.901 0.055,10.34 l -9.073,3.667 4.184,15.297 9.66,-1.458 c 1.437,3.098 3.179,6.091 5.228,8.932 l -6.02,7.709 11.272,11.155 7.646,-6.101 c 2.858,2.02 5.87,3.733 8.983,5.136 l -1.358,9.676 15.339,4.026 3.575,-9.107 c 3.438,0.307 6.901,0.288 10.34,-0.055 l 3.67,9.073 15.295,-4.184 -1.458,-9.66 c 3.101,-1.437 6.091,-3.179 8.932,-5.228 l 7.709,6.02 11.155,-11.271 -6.101,-7.646 c 2.02,-2.858 3.733,-5.87 5.136,-8.983 z m -41.701,-6.225 c -9.713,9.813 -25.538,9.894 -35.35,0.184 -9.813,-9.713 -9.895,-25.537 -0.184,-35.35 9.713,-9.813 25.538,-9.894 35.35,-0.184 9.813,9.713 9.894,25.538 0.184,35.35 z"
   id="path4621" />

</g>
      <path
         style="fill:#ecf0f1"
         d="m 308.071,150.421 c -17.826,0 -32.279,14.45 -32.279,32.279 0,17.826 14.451,32.279 32.279,32.279 17.826,0 32.279,-14.451 32.279,-32.279 0,-17.826 -14.45,-32.279 -32.279,-32.279 z m 17.769,49.863 c -9.713,9.813 -25.538,9.894 -35.35,0.184 -9.813,-9.712 -9.895,-25.537 -0.184,-35.35 9.713,-9.813 25.538,-9.894 35.35,-0.184 9.813,9.713 9.894,25.538 0.184,35.35 z"
         id="path4625" />
      <path
         style="fill:#ffffff"
         d="m 417.06,242.49 c 0.098,-1.815 0.006,-3.649 -0.285,-5.477 l 5.244,-2.987 -5.957,-12.386 -5.65,2.028 c -1.236,-1.38 -2.605,-2.605 -4.076,-3.67 l 1.598,-5.821 -12.971,-4.546 -2.563,5.429 c -1.815,-0.098 -3.649,-0.006 -5.477,0.285 l -2.986,-5.241 -12.386,5.959 2.028,5.647 c -1.377,1.236 -2.605,2.605 -3.67,4.076 l -5.821,-1.598 -4.546,12.971 5.429,2.565 c -0.097,1.812 -0.008,3.649 0.283,5.474 l -5.244,2.987 5.957,12.386 5.65,-2.028 c 1.238,1.377 2.607,2.605 4.076,3.67 l -1.595,5.821 12.971,4.546 2.563,-5.432 c 1.812,0.1 3.649,0.008 5.477,-0.283 l 2.985,5.244 12.386,-5.957 -2.028,-5.647 c 1.38,-1.239 2.605,-2.608 3.67,-4.079 l 5.821,1.598 4.546,-12.971 z m -16.328,8.23 c -5.309,5.367 -13.963,5.408 -19.329,0.1 -5.363,-5.31 -5.408,-13.963 -0.1,-19.329 5.309,-5.365 13.963,-5.408 19.329,-0.1 5.365,5.311 5.409,13.962 0.1,19.329 z"
         id="path4627" />
      <path
         style="fill:#ecf0f1"
         d="m 391.016,221.639 c -10.752,0 -19.468,8.716 -19.468,19.468 0,10.752 8.716,19.468 19.468,19.468 10.752,0 19.468,-8.716 19.468,-19.468 0,-10.752 -8.716,-19.468 -19.468,-19.468 z m 9.714,29.081 c -5.309,5.365 -13.963,5.408 -19.326,0.1 -5.366,-5.309 -5.411,-13.963 -0.103,-19.326 v -0.003 c 5.312,-5.367 13.963,-5.411 19.329,-0.1 5.365,5.308 5.409,13.962 0.1,19.329 z"
         id="path4629" />
      <circle
         style="fill:#b6b6b8"
         cx="256"
         cy="346.79999"
         r="7.8140001"
         id="circle4631" />
      <path
         style="fill:#c2c2c4"
         d="m 305.065,407.271 36.095,11.564 H 170.836 l 29.123,-11.564 v -35.712 h 105.104 v 35.712 z"
         id="path4633" />
      <path
         style="fill:#b6b6b8"
         d="M 305.065,407.271 199.961,371.559 h 105.104 z"
         id="path4635" />
      <path
         style="fill:#ecf0f1"
         d="m 199.959,407.271 h 105.104 l 36.095,11.564 v 4.981 h -85.161 -85.163 v -4.981 l 29.123,-11.564 z"
         id="path4637" />
      <g
         id="g4639">
</g>
      <g
         id="g4641">
</g>
      <g
         id="g4643">
</g>
      <g
         id="g4645">
</g>
      <g
         id="g4647">
</g>
      <g
         id="g4649">
</g>
      <g
         id="g4651">
</g>
      <g
         id="g4653">
</g>
      <g
         id="g4655">
</g>
      <g
         id="g4657">
</g>
      <g
         id="g4659">
</g>
      <g
         id="g4661">
</g>
      <g
         id="g4663">
</g>
      <g
         id="g4665">
</g>
      <g
         id="g4667">
</g>
    </g>
    <g
       transform="matrix(0.26458333,0,0,0.26458333,14.211906,20.926211)"
       id="g5011">
      <rect
         x="4"
         y="65.047997"
         style="fill:#ffffff"
         width="504"
         height="381.896"
         id="rect4917" />
      <g
         id="g4923">
	<path
   style="fill:#aac1ce"
   d="M 504,69.048 V 442.952 H 8 V 69.048 h 496 m 8,-8 H 0 v 389.904 h 512 z"
   id="path4919" />

	<rect
   x="3"
   y="126.848"
   style="fill:#aac1ce"
   width="505.84"
   height="8"
   id="rect4921" />

</g>
      <circle
         style="fill:#e04f5f"
         cx="48.080002"
         cy="98.503998"
         r="12.584"
         id="circle4925" />
      <circle
         style="fill:#25b6d2"
         cx="89.311996"
         cy="98.503998"
         r="12.584"
         id="circle4927" />
      <circle
         style="fill:#32bea6"
         cx="130.56799"
         cy="98.503998"
         r="12.584"
         id="circle4929" />
      <g
         id="g4943">
	<path
   style="fill:#415e72"
   d="m 112.856,247.544 c 5.96,-0.976 12,-1.432 18.04,-1.344 6.784,-0.52 13.536,1.352 19.096,5.28 4.144,3.576 6.464,8.816 6.328,14.288 0.264,5.464 -1.768,10.784 -5.6,14.68 -5.648,4.888 -12.984,7.376 -20.44,6.912 -1.928,0.032 -3.856,-0.096 -5.76,-0.384 v 24.368 h -11.664 c 0,0 0,-63.8 0,-63.8 z m 11.704,30.128 c 1.896,0.392 3.824,0.56 5.76,0.488 8.8,0 14.2,-4.32 14.2,-11.896 0,-7.2 -4.992,-11.04 -13.152,-11.04 -2.288,-0.048 -4.568,0.144 -6.816,0.576 z"
   id="path4931" />

	<path
   style="fill:#415e72"
   d="m 174.008,264.616 8.448,25.04 c 0.96,2.88 1.92,6.4 2.592,9.12 h 0.28 c 0.8,-2.688 1.6,-6.144 2.504,-9.208 l 7.288,-24.944 h 12.664 l -11.704,31.848 c -6.4,17.472 -10.752,25.232 -16.312,30.032 -3.432,3.2 -7.744,5.304 -12.376,6.048 l -2.688,-9.976 c 2.488,-0.64 4.832,-1.752 6.904,-3.264 2.696,-1.912 4.888,-4.44 6.4,-7.384 0.432,-0.632 0.704,-1.36 0.8,-2.12 -0.032,-0.808 -0.264,-1.6 -0.672,-2.296 l -17.08,-42.888 z"
   id="path4933" />

	<path
   style="fill:#415e72"
   d="m 228.152,251.28 v 13.336 h 11.2 v 8.8 h -11.2 v 20.624 c 0,5.664 1.536,8.64 6.048,8.64 1.552,0.016 3.096,-0.176 4.6,-0.576 l 0.192,9.016 c -2.76,0.864 -5.648,1.256 -8.536,1.16 -3.776,0.184 -7.456,-1.208 -10.168,-3.832 -2.808,-3.744 -4.112,-8.4 -3.648,-13.056 v -21.944 h -6.72 v -8.8 h 6.712 v -10.584 z"
   id="path4935" />

	<path
   style="fill:#415e72"
   d="m 248.32,243.2 h 11.888 v 27.832 h 0.192 c 1.464,-2.264 3.472,-4.112 5.848,-5.376 2.456,-1.408 5.24,-2.136 8.064,-2.112 8,0 16.312,5.272 16.312,20.24 v 27.536 h -11.792 v -26.168 c 0,-6.816 -2.496,-11.896 -9.016,-11.896 -4.152,0 -7.832,2.672 -9.12,6.624 -0.376,1.144 -0.544,2.344 -0.488,3.544 v 27.92 H 248.32 Z"
   id="path4937" />

	<path
   style="fill:#415e72"
   d="m 347.656,287.552 c 0.944,12.752 -8.624,23.856 -21.376,24.8 -0.872,0.064 -1.752,0.08 -2.624,0.048 -12.472,0.48 -22.96,-9.24 -23.44,-21.712 -0.032,-0.792 -0.016,-1.584 0.032,-2.368 -0.952,-12.704 8.568,-23.776 21.272,-24.728 0.968,-0.072 1.936,-0.088 2.904,-0.032 12.36,-0.488 22.784,9.128 23.272,21.496 0.032,0.832 0.016,1.664 -0.04,2.496 z m -35.2,0.488 c 0,9.016 4.416,15.832 11.608,15.832 6.712,0 11.416,-6.616 11.416,-16 0,-7.288 -3.264,-15.64 -11.32,-15.64 -8.36,-0.032 -11.712,8.032 -11.712,15.768 z"
   id="path4939" />

	<path
   style="fill:#415e72"
   d="m 357.376,278.536 c 0,-5.376 -0.104,-9.88 -0.392,-13.912 h 10.4 l 0.568,7.008 h 0.288 c 3.152,-5.16 8.824,-8.24 14.872,-8.064 8.16,0 16.6,5.272 16.6,20.056 v 27.728 H 387.88 v -26.4 c 0,-6.72 -2.496,-11.808 -8.92,-11.808 -4.232,0.096 -7.928,2.872 -9.208,6.904 -0.368,1.248 -0.536,2.544 -0.488,3.84 v 27.44 h -11.888 z"
   id="path4941" />

</g>
      <g
         id="g4945">
</g>
      <g
         id="g4947">
</g>
      <g
         id="g4949">
</g>
      <g
         id="g4951">
</g>
      <g
         id="g4953">
</g>
      <g
         id="g4955">
</g>
      <g
         id="g4957">
</g>
      <g
         id="g4959">
</g>
      <g
         id="g4961">
</g>
      <g
         id="g4963">
</g>
      <g
         id="g4965">
</g>
      <g
         id="g4967">
</g>
      <g
         id="g4969">
</g>
      <g
         id="g4971">
</g>
      <g
         id="g4973">
</g>
    </g>
  </g>
</svg>
